<?xml version="1.0" encoding="utf-8"?>
<!-- Generator: Adobe Illustrator 16.0.0, SVG Export Plug-In . SVG Version: 6.00 Build 0)  -->
<!DOCTYPE svg PUBLIC "-//W3C//DTD SVG 1.1//EN" "http://www.w3.org/Graphics/SVG/1.1/DTD/svg11.dtd">
<svg version="1.1" id="Layer_1" xmlns="http://www.w3.org/2000/svg" xmlns:xlink="http://www.w3.org/1999/xlink" x="0px" y="0px"
	 width="437.74px" height="55.403px" viewBox="0 0 437.74 55.403" enable-background="new 0 0 437.74 55.403" xml:space="preserve">
<path fill="#EF4443" d="M33.302,3.334c5.392,0,6.881,29.558,5.179,30.361L30.607,54.41l-5.958-19.082h-4.399L17.34,54.41H3.721
	L12.73,3.334H33.302z M28.833,14.4h-5.32l-1.845,12.344h4.966c2.506,0,4.302-0.603,5.39-1.809c1.088-1.206,1.632-2.802,1.632-4.788
	C33.657,16.316,32.049,14.4,28.833,14.4z"/>
<path fill="#44B75E" d="M39.72,3.334c5.392,0-2.695,51.076-2.695,51.076l-5.958-19.082h-4.399L23.759,54.41H10.14l9.009-51.076
	H39.72z M35.252,14.4h-5.32l-1.845,12.344h4.966c2.506,0,4.302-0.603,5.39-1.809c1.088-1.206,1.632-2.802,1.632-4.788
	C40.076,16.316,38.467,14.4,35.252,14.4z"/>
<path fill="#507ABD" d="M43.75,3.334L37.97,35.328h-4.399L30.662,54.41H17.043l9.009-51.076H43.75z M36.835,14.4L34.99,26.744"/>
<path fill="#262626" d="M52.836,3.334c5.392,0,9.222,1.183,11.493,3.547c1.702,1.798,2.553,4.068,2.553,6.811
	c0,0.946-0.095,1.939-0.284,2.979l-0.993,5.533c-0.568,3.075-1.55,5.558-2.944,7.449c-1.396,1.892-2.944,3.239-4.646,4.042
	l6.456,20.714H50.142l-5.958-19.082h-4.399L36.875,54.41H23.256l9.009-51.076H52.836z M48.368,14.4h-5.32l-1.845,12.344h4.966
	c2.506,0,4.302-0.603,5.39-1.809c1.088-1.206,1.632-2.802,1.632-4.788C53.192,16.316,51.583,14.4,48.368,14.4z"/>
<path fill="#262626" d="M84.97,45.33c1.088,0,2.058-0.236,2.909-0.709l-0.354,8.016c-2.224,1.845-4.753,2.767-7.59,2.767
	c-4.304,0-7.094-0.994-8.371-2.979c-0.851-1.324-1.277-2.732-1.277-4.221c0-1.49,0.094-2.801,0.283-3.937l4.257-23.978h12.06
	l-3.973,22.346c-0.047,0.284-0.071,0.544-0.071,0.78C82.842,44.692,83.552,45.33,84.97,45.33z M76.246,8.726
	c0-3.026,0.674-5.237,2.021-6.632C79.615,0.699,81.708,0,84.544,0c3.973,0,5.959,1.751,5.959,5.25c0,2.979-0.673,5.155-2.021,6.526
	c-1.348,1.373-3.466,2.058-6.35,2.058C78.207,13.833,76.246,12.131,76.246,8.726z"/>
<path fill="#262626" d="M115.047,32.631c0-2.032-0.981-3.05-2.944-3.05s-3.583,0.733-4.859,2.199l-3.972,22.629h-12.06l6.03-34.121
	h11.208l-0.781,4.186c2.79-3.452,6.314-5.179,10.571-5.179c4.255,0,7.022,1.042,8.299,3.122c0.804,1.325,1.207,2.838,1.207,4.541
	s-0.119,3.288-0.355,4.752l-1.915,10.925c-0.048,0.284-0.071,0.544-0.071,0.78c0,1.277,0.709,1.915,2.128,1.915
	c1.087,0,2.057-0.236,2.908-0.709l-0.354,8.016c-2.224,1.845-4.752,2.767-7.591,2.767c-6.432,0-9.647-2.696-9.647-8.087
	c0-0.945,0.094-1.961,0.284-3.05l1.703-9.436C114.976,33.979,115.047,33.247,115.047,32.631z"/>
<path fill="#262626" d="M168.605,45.33c1.086,0,2.056-0.236,2.909-0.709l-0.355,8.016c-2.224,1.845-4.942,2.767-8.158,2.767
	c-3.216,0-5.593-0.852-7.129-2.554c-1.537-1.702-2.731-4.563-3.583-8.583l-0.212-0.994c-0.993,0.143-2.483,0.26-4.469,0.355
	l-1.915,10.782h-12.06l9.506-53.842h12.059l-4.114,23.339c2.79-3.074,6.572-4.612,11.351-4.612c3.215,0,5.591,0.793,7.128,2.377
	c1.537,1.584,2.306,3.7,2.306,6.349c0,5.107-2.672,9.104-8.016,11.988l0.781,2.625C165.152,44.432,166.477,45.33,168.605,45.33z
	 M156.333,28.943c-2.553,0-4.823,1.206-6.81,3.618l-0.781,4.681c6.999-0.283,10.499-2.15,10.499-5.604
	c0-0.803-0.249-1.454-0.745-1.95C158,29.192,157.278,28.943,156.333,28.943z"/>
<path fill="#262626" d="M212.089,55.403c-6.763,0-11.445-1.465-14.046-4.399c-1.797-2.08-2.695-4.988-2.695-8.725
	c0-1.607,0.165-3.334,0.497-5.179l2.909-16.315c2.129-11.965,9.812-17.947,23.055-17.947c5.486,0,9.648,1.17,12.485,3.511
	c2.837,2.34,4.256,5.545,4.256,9.611c0,1.893-0.273,3.772-0.816,5.64c-0.544,1.869-1.075,3.252-1.596,4.149l-0.78,1.419h-12.555
	c1.561-1.797,2.341-4.35,2.341-7.662c0-1.749-0.45-3.132-1.348-4.149c-0.899-1.016-2.224-1.525-3.972-1.525
	c-4.777,0-7.614,2.649-8.513,7.945l-2.482,14.33c-0.237,1.23-0.355,2.436-0.355,3.618c0,3.121,1.867,4.682,5.604,4.682
	c4.493,0,7.188-2.53,8.088-7.591h12.768l-0.354,2.058C232.685,49.894,225.188,55.403,212.089,55.403z"/>
<path fill="#262626" d="M277.067,45.33c1.088,0,2.057-0.236,2.909-0.709l-0.355,8.016c-2.223,1.845-4.752,2.767-7.59,2.767
	c-6.433,0-9.648-2.696-9.648-8.087c0-0.945,0.094-1.961,0.284-3.05l1.561-8.726c0.141-0.851,0.212-1.702,0.212-2.553
	c0-2.27-1.195-3.405-3.583-3.405c-2.389,0-4.246,0.805-5.568,2.412l-3.973,22.416h-12.06l9.507-53.842h12.058l-4.043,22.914
	c2.601-2.791,5.864-4.187,9.789-4.187c4.776,0,7.875,1.065,9.293,3.193c0.994,1.419,1.49,3.003,1.49,4.753
	c0,1.75-0.143,3.358-0.425,4.823l-1.917,10.57c-0.047,0.284-0.071,0.544-0.071,0.78C274.939,44.692,275.648,45.33,277.067,45.33z"/>
<path fill="#262626" d="M317.43,43.485c0,1.229,0.626,1.844,1.88,1.844c1.252,0,2.306-0.236,3.156-0.709l-0.354,8.016
	c-2.27,1.845-4.823,2.767-7.661,2.767c-5.202,0-8.087-1.891-8.655-5.675c-2.364,3.784-5.841,5.675-10.427,5.675
	c-7.756,0-11.634-3.333-11.634-10.002c0-1.135,0.118-2.388,0.355-3.76l1.49-8.3c0.755-4.256,2.494-7.649,5.213-10.18
	c2.718-2.529,6.265-3.795,10.64-3.795s7.343,1.017,8.903,3.05l0.354-2.128h10.783l-3.973,22.346
	C317.453,42.918,317.43,43.202,317.43,43.485z M296.433,40.081c-0.096,0.426-0.143,1.018-0.143,1.773
	c0,0.757,0.355,1.501,1.063,2.234c0.71,0.734,1.903,1.1,3.583,1.1c1.679,0,3.132-0.662,4.363-1.986l2.128-11.918
	c-0.521-1.182-1.75-1.773-3.688-1.773c-3.644,0-5.771,1.751-6.386,5.25L296.433,40.081z"/>
<path fill="#262626" d="M361.27,27.524c0,1.608-0.273,3.168-0.816,4.682c-0.544,1.514-1.076,2.625-1.596,3.334l-0.781,0.994h-10.711
	c1.181-1.087,1.772-2.436,1.772-4.044c0-0.851-0.272-1.548-0.815-2.093c-0.544-0.542-1.288-0.815-2.234-0.815
	c-1.608,0-3.004,0.805-4.185,2.412l-3.973,22.416h-12.06l6.029-34.121h11.209l-0.851,4.752c2.694-3.83,5.958-5.746,9.788-5.746
	c3.073,0,5.38,0.734,6.917,2.199C360.5,22.961,361.27,24.971,361.27,27.524z"/>
<path fill="#262626" d="M378.506,55.403c-5.486,0-9.435-1.23-11.846-3.689c-1.799-1.796-2.696-4.208-2.696-7.235
	c0-0.994,0.095-2.058,0.284-3.193l4.823-27.453l12.981-5.392l-2.057,11.847h19.578l-1.773,10.003h-19.578l-1.419,8.016
	c-0.189,0.898-0.284,1.702-0.284,2.412c0,2.979,1.419,4.469,4.257,4.469c1.514,0,2.778-0.639,3.795-1.916
	c1.017-1.276,1.714-2.979,2.094-5.107h11.776C396.455,49.656,389.809,55.403,378.506,55.403z"/>
<path fill="#262626" d="M437.74,27.667c0,1.561-0.475,3.003-1.42,4.327h-11.633c0.377-0.284,0.566-0.757,0.566-1.418
	c0-0.662-0.379-1.195-1.135-1.597c-0.758-0.402-1.727-0.604-2.908-0.604c-3.547,0-5.32,1.089-5.32,3.264
	c0,0.851,0.662,1.466,1.986,1.844c1.324,0.379,2.932,0.687,4.824,0.922c1.891,0.237,3.783,0.58,5.674,1.029
	c1.893,0.45,3.5,1.336,4.824,2.66c1.324,1.324,1.986,3.098,1.986,5.32c0,3.926-1.572,6.905-4.717,8.938
	c-3.146,2.034-7.721,3.051-13.727,3.051c-6.008,0-10.215-0.97-12.627-2.909c-1.893-1.513-2.838-3.593-2.838-6.243
	c0-0.756,0.07-1.537,0.213-2.341l11.848-0.142c-0.096,0.663,0.293,1.241,1.17,1.738c0.873,0.497,2.164,0.745,3.865,0.745
	c1.703,0,2.932-0.177,3.689-0.533c0.756-0.354,1.135-1.027,1.135-2.021c0-0.661-0.662-1.122-1.986-1.382s-2.943-0.485-4.859-0.674
	c-1.914-0.189-3.83-0.497-5.746-0.923c-1.914-0.425-3.535-1.324-4.859-2.695c-1.324-1.372-1.986-3.168-1.986-5.392
	c0-4.303,1.668-7.613,5.002-9.931c3.334-2.316,8.146-3.475,14.436-3.475C432.891,19.225,437.74,22.039,437.74,27.667z"/>
</svg>
