<?xml version="1.0" encoding="utf-8"?>
<!-- Generator: Adobe Illustrator 16.0.0, SVG Export Plug-In . SVG Version: 6.00 Build 0)  -->
<!DOCTYPE svg PUBLIC "-//W3C//DTD SVG 1.1//EN" "http://www.w3.org/Graphics/SVG/1.1/DTD/svg11.dtd">
<svg version="1.1" id="Layer_1" xmlns="http://www.w3.org/2000/svg" xmlns:xlink="http://www.w3.org/1999/xlink" x="0px" y="0px"
	 width="437.74px" height="55.402px" viewBox="0 0 437.74 55.402" enable-background="new 0 0 437.74 55.402" xml:space="preserve">
<path fill="#F59E0B" d="M33.302,3.334c5.392,0,6.881,29.558,5.179,30.36L30.607,54.41l-5.958-19.082H20.25L17.34,54.41H3.721
	L12.73,3.334H33.302z M28.833,14.4h-5.32l-1.845,12.345h4.966c2.506,0,4.302-0.604,5.39-1.81s1.632-2.802,1.632-4.788
	C33.657,16.316,32.049,14.4,28.833,14.4z"/>
<path fill="#22C55E" d="M39.72,3.334c5.392,0-2.695,51.076-2.695,51.076l-5.958-19.082h-4.399L23.759,54.41H10.14l9.009-51.076
	H39.72L39.72,3.334z M35.252,14.4h-5.32l-1.845,12.345h4.966c2.506,0,4.302-0.604,5.39-1.81c1.088-1.206,1.632-2.802,1.632-4.788
	C40.076,16.316,38.467,14.4,35.252,14.4z"/>
<path fill="#3B82F6" d="M43.75,3.334l-5.78,31.994h-4.399L30.662,54.41H17.043l9.009-51.076H43.75L43.75,3.334z M36.835,14.4
	L34.99,26.744"/>
<path fill="#262626" d="M52.836,3.334c5.392,0,9.222,1.183,11.493,3.547c1.702,1.798,2.553,4.068,2.553,6.811
	c0,0.946-0.095,1.939-0.284,2.979l-0.993,5.533c-0.568,3.074-1.55,5.558-2.944,7.448c-1.396,1.893-2.944,3.239-4.646,4.042
	l6.456,20.715H50.142l-5.958-19.082h-4.399l-2.91,19.083H23.256l9.009-51.076H52.836L52.836,3.334z M48.368,14.4h-5.32
	l-1.845,12.345h4.966c2.506,0,4.302-0.604,5.39-1.81s1.632-2.802,1.632-4.788C53.192,16.316,51.583,14.4,48.368,14.4z"/>
<path fill="#262626" d="M84.97,45.33c1.088,0,2.058-0.236,2.909-0.709l-0.354,8.016c-2.224,1.845-4.753,2.767-7.59,2.767
	c-4.304,0-7.094-0.993-8.371-2.979c-0.851-1.324-1.277-2.732-1.277-4.221c0-1.49,0.094-2.802,0.283-3.938l4.257-23.978h12.06
	l-3.973,22.346c-0.047,0.284-0.071,0.544-0.071,0.78C82.842,44.692,83.552,45.33,84.97,45.33z M76.246,8.726
	c0-3.025,0.674-5.236,2.021-6.632C79.615,0.699,81.708,0,84.544,0c3.973,0,5.959,1.751,5.959,5.25c0,2.979-0.673,5.154-2.021,6.525
	c-1.348,1.373-3.466,2.059-6.35,2.059C78.207,13.833,76.246,12.131,76.246,8.726z"/>
<path fill="#262626" d="M115.047,32.631c0-2.032-0.981-3.05-2.944-3.05s-3.583,0.732-4.859,2.198l-3.972,22.63h-12.06l6.03-34.121
	h11.208l-0.781,4.186c2.79-3.452,6.314-5.179,10.571-5.179c4.255,0,7.022,1.042,8.299,3.122c0.804,1.325,1.207,2.838,1.207,4.541
	s-0.119,3.288-0.355,4.752l-1.915,10.925c-0.048,0.284-0.071,0.544-0.071,0.78c0,1.276,0.709,1.915,2.128,1.915
	c1.087,0,2.057-0.236,2.908-0.709l-0.354,8.016c-2.224,1.845-4.752,2.767-7.591,2.767c-6.432,0-9.647-2.695-9.647-8.087
	c0-0.944,0.094-1.961,0.284-3.05l1.703-9.436C114.976,33.979,115.047,33.247,115.047,32.631z"/>
<path fill="#262626" d="M168.605,45.33c1.086,0,2.056-0.236,2.909-0.709l-0.355,8.016c-2.224,1.845-4.942,2.767-8.158,2.767
	s-5.593-0.852-7.129-2.554c-1.537-1.702-2.731-4.563-3.583-8.583l-0.212-0.994c-0.993,0.144-2.483,0.261-4.469,0.355l-1.915,10.782
	h-12.06l9.506-53.843h12.059l-4.114,23.34c2.79-3.074,6.572-4.612,11.351-4.612c3.215,0,5.591,0.793,7.128,2.377
	s2.306,3.7,2.306,6.349c0,5.107-2.672,9.104-8.016,11.988l0.781,2.625C165.152,44.432,166.477,45.33,168.605,45.33z M156.333,28.943
	c-2.553,0-4.823,1.206-6.81,3.618l-0.781,4.682c6.999-0.283,10.499-2.15,10.499-5.604c0-0.803-0.249-1.454-0.745-1.95
	S157.278,28.943,156.333,28.943z"/>
<path fill="#262626" d="M212.089,55.403c-6.763,0-11.445-1.465-14.046-4.398c-1.797-2.08-2.695-4.988-2.695-8.726
	c0-1.606,0.165-3.334,0.497-5.179l2.909-16.314c2.129-11.966,9.812-17.947,23.056-17.947c5.485,0,9.647,1.17,12.484,3.511
	c2.837,2.34,4.256,5.545,4.256,9.611c0,1.893-0.273,3.771-0.816,5.64c-0.543,1.869-1.074,3.252-1.596,4.149l-0.779,1.419h-12.555
	c1.561-1.797,2.34-4.351,2.34-7.662c0-1.749-0.449-3.132-1.348-4.149c-0.898-1.016-2.225-1.524-3.972-1.524
	c-4.777,0-7.614,2.648-8.513,7.944l-2.482,14.33c-0.237,1.23-0.355,2.437-0.355,3.618c0,3.121,1.867,4.683,5.604,4.683
	c4.493,0,7.188-2.53,8.088-7.592h12.769l-0.354,2.059C232.685,49.894,225.188,55.403,212.089,55.403z"/>
<path fill="#262626" d="M277.067,45.33c1.088,0,2.057-0.236,2.908-0.709l-0.354,8.016c-2.224,1.845-4.752,2.767-7.591,2.767
	c-6.432,0-9.647-2.695-9.647-8.087c0-0.944,0.095-1.961,0.284-3.05l1.561-8.726c0.142-0.852,0.213-1.702,0.213-2.554
	c0-2.27-1.195-3.404-3.584-3.404s-4.246,0.805-5.567,2.412l-3.974,22.416h-12.06l9.507-53.843h12.059l-4.043,22.914
	c2.601-2.791,5.863-4.187,9.789-4.187c4.775,0,7.875,1.064,9.293,3.193c0.994,1.419,1.49,3.003,1.49,4.753s-0.144,3.357-0.426,4.822
	l-1.917,10.57c-0.047,0.284-0.071,0.544-0.071,0.78C274.938,44.692,275.647,45.33,277.067,45.33z"/>
<path fill="#262626" d="M317.43,43.485c0,1.229,0.626,1.845,1.88,1.845c1.253,0,2.307-0.236,3.156-0.709l-0.354,8.016
	c-2.271,1.845-4.823,2.767-7.661,2.767c-5.202,0-8.087-1.891-8.655-5.675c-2.363,3.784-5.841,5.675-10.427,5.675
	c-7.757,0-11.634-3.333-11.634-10.002c0-1.135,0.117-2.388,0.354-3.76l1.49-8.3c0.755-4.256,2.494-7.649,5.213-10.18
	c2.718-2.529,6.265-3.795,10.64-3.795s7.344,1.017,8.903,3.05l0.354-2.128h10.782L317.5,42.634
	C317.453,42.918,317.43,43.202,317.43,43.485z M296.433,40.081c-0.096,0.426-0.143,1.018-0.143,1.772
	c0,0.757,0.355,1.501,1.063,2.234c0.711,0.733,1.903,1.1,3.584,1.1c1.679,0,3.131-0.662,4.362-1.985l2.128-11.918
	c-0.521-1.183-1.75-1.773-3.688-1.773c-3.645,0-5.771,1.751-6.387,5.25L296.433,40.081z"/>
<path fill="#262626" d="M361.27,27.524c0,1.608-0.272,3.168-0.815,4.683c-0.544,1.514-1.076,2.625-1.596,3.334l-0.781,0.994h-10.711
	c1.181-1.088,1.771-2.437,1.771-4.044c0-0.852-0.271-1.549-0.814-2.094c-0.544-0.542-1.288-0.814-2.234-0.814
	c-1.608,0-3.004,0.805-4.185,2.412l-3.974,22.416h-12.06l6.029-34.121h11.209l-0.852,4.752c2.694-3.83,5.958-5.746,9.788-5.746
	c3.073,0,5.38,0.733,6.917,2.199C360.5,22.961,361.27,24.971,361.27,27.524z"/>
<path fill="#262626" d="M378.506,55.403c-5.486,0-9.435-1.229-11.846-3.688c-1.799-1.796-2.696-4.208-2.696-7.235
	c0-0.994,0.095-2.058,0.284-3.192l4.823-27.453l12.98-5.393l-2.057,11.848h19.578L397.8,30.291h-19.578l-1.419,8.016
	c-0.188,0.898-0.284,1.702-0.284,2.412c0,2.979,1.419,4.469,4.258,4.469c1.514,0,2.777-0.639,3.795-1.916
	c1.017-1.275,1.714-2.979,2.094-5.106h11.776C396.455,49.656,389.809,55.403,378.506,55.403z"/>
<path fill="#262626" d="M437.74,27.667c0,1.561-0.476,3.003-1.42,4.327h-11.634c0.378-0.284,0.566-0.758,0.566-1.418
	c0-0.662-0.379-1.195-1.135-1.598c-0.758-0.401-1.728-0.604-2.908-0.604c-3.547,0-5.32,1.089-5.32,3.264
	c0,0.852,0.662,1.466,1.986,1.844c1.324,0.379,2.932,0.688,4.824,0.922c1.891,0.237,3.783,0.58,5.674,1.029
	c1.893,0.45,3.5,1.336,4.824,2.66s1.985,3.098,1.985,5.32c0,3.926-1.571,6.904-4.717,8.938c-3.146,2.034-7.721,3.051-13.727,3.051
	c-6.008,0-10.215-0.97-12.627-2.908c-1.894-1.514-2.838-3.594-2.838-6.243c0-0.756,0.069-1.537,0.213-2.341l11.848-0.143
	c-0.096,0.663,0.293,1.241,1.17,1.738c0.873,0.497,2.164,0.745,3.865,0.745c1.703,0,2.932-0.177,3.688-0.533
	c0.757-0.354,1.136-1.027,1.136-2.021c0-0.66-0.662-1.121-1.986-1.382c-1.324-0.26-2.943-0.484-4.859-0.674
	c-1.914-0.188-3.83-0.497-5.746-0.923c-1.913-0.425-3.534-1.324-4.858-2.695c-1.324-1.372-1.986-3.168-1.986-5.392
	c0-4.303,1.668-7.613,5.002-9.931c3.334-2.316,8.146-3.476,14.437-3.476C432.891,19.225,437.74,22.039,437.74,27.667z"/>
</svg>
